HIERARCHY
ROOT Hips
{
	OFFSET 0.000000 0.000000 0.000000
	CHANNELS 6 Xposition Yposition Zposition Xrotation Yrotation Zrotation
	JOINT LeftUpLeg_virtual
	{
		OFFSET 0.000000 0.000000 0.000000
		CHANNELS 3 Xrotation Yrotation Zrotation
		JOINT LeftUpLeg
		{
			OFFSET 11.394100 -6.187798 -0.413800
			CHANNELS 3 Xrotation Yrotation Zrotation
			JOINT LeftLeg
			{
				OFFSET 0.430247 -32.302673 3.732800
				CHANNELS 3 Xrotation Yrotation Zrotation
				JOINT LeftFoot
				{
					OFFSET -0.430247 -48.264931 -6.423300
					CHANNELS 3 Xrotation Yrotation Zrotation
					JOINT LeftToeBase
					{
						OFFSET 4.230900 -16.068199 23.438400
						CHANNELS 3 Xrotation Yrotation Zrotation
						JOINT LeftToe_End
						{
							OFFSET 4.510700 0.695400 19.974600
							CHANNELS 3 Xrotation Yrotation Zrotation
							End Site
							{
								OFFSET 0 0 0
							}
						}
					}
				}
			}
		}
	}
	JOINT RightUpLeg_virtual
	{
		OFFSET 0.000000 0.000000 0.000000
		CHANNELS 3 Xrotation Yrotation Zrotation
		JOINT RightUpLeg
		{
			OFFSET -11.333700 -6.187798 -0.413800
			CHANNELS 3 Xrotation Yrotation Zrotation
			JOINT RightLeg
			{
				OFFSET -0.430392 -32.302628 3.733000
				CHANNELS 3 Xrotation Yrotation Zrotation
				JOINT RightFoot
				{
					OFFSET 0.430392 -48.264973 -6.423500
					CHANNELS 3 Xrotation Yrotation Zrotation
					JOINT RightToeBase
					{
						OFFSET -4.230900 -16.068199 23.438400
						CHANNELS 3 Xrotation Yrotation Zrotation
						JOINT RightToe_End
						{
							OFFSET -4.510700 0.695400 19.974600
							CHANNELS 3 Xrotation Yrotation Zrotation
							End Site
							{
								OFFSET 0 0 0
							}
						}
					}
				}
			}
		}
	}
	JOINT Spine_virtual
	{
		OFFSET 0.000000 0.000000 0.000000
		CHANNELS 3 Xrotation Yrotation Zrotation
		JOINT Spine
		{
			OFFSET -0.002400 12.777504 0.315300
			CHANNELS 3 Xrotation Yrotation Zrotation
			JOINT Spine1
			{
				OFFSET -0.002067 5.816869 0.032633
				CHANNELS 3 Xrotation Yrotation Zrotation
				JOINT Spine1_split
				{
					OFFSET -0.002067 5.816869 0.032633
					CHANNELS 3 Xrotation Yrotation Zrotation
					JOINT Spine2
					{
						OFFSET -0.002067 5.816869 0.032633
						CHANNELS 3 Xrotation Yrotation Zrotation
						JOINT Neck_virtual
						{
							OFFSET 0.000000 0.000000 0.000000
							CHANNELS 3 Xrotation Yrotation Zrotation
							JOINT Neck
							{
								OFFSET -0.003700 21.199493 -0.826900
								CHANNELS 3 Xrotation Yrotation Zrotation
								JOINT Head
								{
									OFFSET 0.000000 20.442200 4.834800
									CHANNELS 3 Xrotation Yrotation Zrotation
									JOINT HeadTop_End
									{
										OFFSET 0.000000 34.668396 4.968400
										CHANNELS 3 Xrotation Yrotation Zrotation
										End Site
										{
											OFFSET 0 0 0
										}
									}
								}
							}
						}
						JOINT LeftShoulder_virtual
						{
							OFFSET 0.000000 0.000000 0.000000
							CHANNELS 3 Xrotation Yrotation Zrotation
							JOINT LeftShoulder
							{
								OFFSET 3.288150 8.794197 -1.372250
								CHANNELS 3 Xrotation Yrotation Zrotation
								JOINT LeftShoulder_split
								{
									OFFSET 3.288150 8.794197 -1.372250
									CHANNELS 3 Xrotation Yrotation Zrotation
									JOINT LeftArm
									{
										OFFSET 11.953299 -2.279007 -0.146200
										CHANNELS 3 Xrotation Yrotation Zrotation
										JOINT LeftForeArm
										{
											OFFSET 18.448900 0.000000 0.000000
											CHANNELS 3 Xrotation Yrotation Zrotation
											JOINT LeftHand
											{
												OFFSET 29.527798 0.000000 0.000000
												CHANNELS 3 Xrotation Yrotation Zrotation
												End Site
												{
													OFFSET 0 0 0
												}
											}
										}
									}
								}
							}
						}
						JOINT RightShoulder_virtual
						{
							OFFSET 0.000000 0.000000 0.000000
							CHANNELS 3 Xrotation Yrotation Zrotation
							JOINT RightShoulder
							{
								OFFSET -3.249400 8.794197 -1.372250
								CHANNELS 3 Xrotation Yrotation Zrotation
								JOINT RightShoulder_split
								{
									OFFSET -3.249400 8.794197 -1.372250
									CHANNELS 3 Xrotation Yrotation Zrotation
									JOINT RightArm
									{
										OFFSET -11.953299 -2.279007 -0.146200
										CHANNELS 3 Xrotation Yrotation Zrotation
										JOINT RightForeArm
										{
											OFFSET -18.448900 0.000000 0.000000
											CHANNELS 3 Xrotation Yrotation Zrotation
											JOINT RightHand
											{
												OFFSET -29.527802 0.000000 0.000000
												CHANNELS 3 Xrotation Yrotation Zrotation
												End Site
												{
													OFFSET 0 0 0
												}
											}
										}
									}
								}
							}
						}
					}
				}
			}
		}
	}
}
MOTION
Frames: 4
Frame Time: 0.03333333
0.158354 88.995926 1.653645 0.000000 0.000000 0.000000 7.725061 -57.424303 9.198913 -38.393494 7.400685 25.823045 36.674305 -3.941532 -5.435908 -2.290119 -5.127280 -9.909683 2.677485 0.358276 -1.094325 0.000000 0.000000 0.000000 8.245608 -58.670492 9.941058 -37.553818 -7.079143 -26.350021 43.840884 1.637623 -6.417109 -10.741354 0.976853 19.266080 4.425920 0.265413 -0.979258 0.000000 0.000000 0.000000 9.958859 -54.085095 10.401991 9.290159 -2.021802 -1.468959 8.512570 0.572592 -5.859276 -0.528358 -4.499148 0.976562 0.000000 0.000000 0.000000 8.430158 0.947674 -4.704198 -15.333659 26.824798 6.159599 -3.565785 35.578182 -6.558329 0.000000 0.000000 0.000000 8.497573 1.059991 -5.522877 -5.849908 -10.279673 -1.591637 -5.897800 1.020775 -4.239682 -19.154019 -1.113707 -33.304115 3.229572 -34.988187 8.196312 0.000000 0.000000 0.000000 8.942478 1.113536 -5.340337 -2.740595 11.709335 -4.011654 1.842458 -4.144333 8.617803 -44.111657 -20.494415 33.577111 -152.836561 66.981036 150.853102 0.000000 0.000000 0.000000 
0.441772 88.870270 1.129967 0.000000 0.000000 0.000000 8.092158 -57.434467 9.757181 -38.032409 7.459044 25.189504 36.265665 -2.897426 -5.764966 -2.922234 -4.767851 -9.246354 2.756796 0.338881 -1.503755 0.000000 0.000000 0.000000 8.631759 -59.049806 10.575193 -37.760533 -7.159826 -26.717600 43.853807 1.888968 -6.389413 -10.643077 1.021475 18.816628 3.856366 -0.028165 -0.437193 0.000000 0.000000 0.000000 10.294592 -53.978999 10.840203 9.231631 -1.813444 -1.412611 8.387083 0.567939 -5.841917 -0.470141 -4.200648 1.388710 0.000000 0.000000 0.000000 8.499686 0.897482 -4.605810 -15.249350 27.333616 6.205180 -2.967870 35.097439 -6.549632 0.000000 0.000000 0.000000 8.565902 1.027654 -5.460395 -5.822580 -10.373521 -1.876443 -6.841211 0.625444 -4.872910 -18.721601 -1.051596 -33.998281 3.169935 -36.406551 7.868329 0.000000 0.000000 0.000000 8.822313 1.023363 -5.117703 -2.116462 12.391350 -3.664376 1.327799 -4.382840 6.921453 -44.100800 -22.870911 32.787975 -150.346438 68.356178 148.430201 0.000000 0.000000 0.000000 
0.742013 88.781128 0.521439 0.000000 0.000000 0.000000 8.255183 -58.003879 10.426591 -37.416859 8.125227 24.713542 35.844491 -1.735453 -6.208440 -3.515963 -4.637999 -9.353420 2.843653 0.280279 -1.604315 0.000000 0.000000 0.000000 8.625259 -59.795205 11.203290 -38.042115 -7.483533 -27.436004 43.775741 2.715052 -6.242287 -10.561483 1.167771 18.633308 3.638579 -0.265661 -0.293489 0.000000 0.000000 0.000000 10.007873 -54.231849 11.025453 9.467563 -1.465894 -1.397935 8.486108 0.640427 -5.755301 -0.158649 -3.478026 1.438294 0.000000 0.000000 0.000000 8.627007 0.989097 -4.533203 -16.034100 27.598057 7.217597 -1.834682 34.513390 -6.753554 0.000000 0.000000 0.000000 8.730083 1.053375 -5.337963 -5.832473 -10.800296 -2.239124 -7.467230 -0.337199 -5.348310 -18.900286 1.248199 -35.071348 3.487193 -38.374762 6.862628 0.000000 0.000000 0.000000 8.759058 1.017242 -4.849100 -1.230825 12.864869 -3.023652 0.330563 -3.680974 5.393858 -44.694866 -24.427121 30.274667 -142.640045 69.597941 141.308226 0.000000 0.000000 0.000000 
0.973338 88.821327 0.192410 0.000000 0.000000 0.000000 8.309475 -59.271289 11.263685 -36.712287 9.357303 24.421738 35.685846 -0.545300 -6.694992 -4.063585 -4.681076 -10.231932 3.178199 0.205673 -1.379132 0.000000 0.000000 0.000000 8.391894 -61.064548 11.853687 -38.397783 -7.884241 -28.448561 43.623175 3.996809 -5.936402 -10.295192 1.548651 18.828900 3.521462 -0.424731 -0.550486 0.000000 0.000000 0.000000 9.317899 -55.128673 11.127611 9.950953 -1.014513 -1.409914 8.789516 0.801283 -5.560125 0.141467 -2.713074 1.240976 0.000000 0.000000 0.000000 8.812753 1.207589 -4.427756 -17.326877 27.582788 8.747194 -0.105381 34.007730 -7.318706 0.000000 0.000000 0.000000 8.970732 1.159907 -5.113268 -5.916952 -11.563086 -2.875173 -7.963756 -1.520511 -5.463467 -19.063748 5.266014 -36.135884 4.191920 -40.575453 5.364633 0.000000 0.000000 0.000000 8.833720 1.106825 -4.548167 -0.150959 13.270349 -2.261226 -0.888571 -2.752588 4.162254 -45.540986 -24.540009 26.130654 -130.352002 69.918440 130.059315 0.000000 0.000000 0.000000 
